<svg width="38" height="40" viewBox="0 0 38 40" fill="none" xmlns="http://www.w3.org/2000/svg">
<g filter="url(#filter0_d_328_437)">
<path d="M29 23.1844V12.7918C28.9995 12.3362 28.8761 11.8887 28.6421 11.4942C28.408 11.0998 28.0717 10.7722 27.6667 10.5444L18.3333 5.34809C17.9279 5.12005 17.4681 5 17 5C16.5319 5 16.0721 5.12005 15.6667 5.34809L6.33333 10.5444C5.92835 10.7722 5.59197 11.0998 5.35795 11.4942C5.12392 11.8887 5.00048 12.3362 5 12.7918V23.1844C5.00048 23.64 5.12392 24.0875 5.35795 24.482C5.59197 24.8764 5.92835 25.204 6.33333 25.4318L15.6667 30.6281C16.0721 30.8561 16.5319 30.9762 17 30.9762C17.4681 30.9762 17.9279 30.8561 18.3333 30.6281L27.6667 25.4318C28.0717 25.204 28.408 24.8764 28.6421 24.482C28.8761 24.0875 28.9995 23.64 29 23.1844Z" fill="#B7FFFB" stroke="#FAFAFA" stroke-width="2.59815" stroke-linecap="round" stroke-linejoin="round"/>
<path d="M5.35938 11.4414L16.9994 18.0017L28.6394 11.4414" fill="#B7FFFB"/>
<path d="M5.35938 11.4414L16.9994 18.0017L28.6394 11.4414" stroke="#FAFAFA" stroke-width="2.59815" stroke-linecap="round" stroke-linejoin="round"/>
<path d="M17 31.083V17.9883" stroke="#FAFAFA" stroke-width="2.59815" stroke-linecap="round" stroke-linejoin="round"/>
</g>
<defs>
<filter id="filter0_d_328_437" x="0.701172" y="0.700684" width="36.5977" height="38.6812" filterUnits="userSpaceOnUse" color-interpolation-filters="sRGB">
<feFlood flood-opacity="0" result="BackgroundImageFix"/>
<feColorMatrix in="SourceAlpha" type="matrix" values="0 0 0 0 0 0 0 0 0 0 0 0 0 0 0 0 0 0 127 0" result="hardAlpha"/>
<feOffset dx="2" dy="2"/>
<feGaussianBlur stdDeviation="2.5"/>
<feComposite in2="hardAlpha" operator="out"/>
<feColorMatrix type="matrix" values="0 0 0 0 0 0 0 0 0 0 0 0 0 0 0 0 0 0 0.25 0"/>
<feBlend mode="normal" in2="BackgroundImageFix" result="effect1_dropShadow_328_437"/>
<feBlend mode="normal" in="SourceGraphic" in2="effect1_dropShadow_328_437" result="shape"/>
</filter>
</defs>
</svg>
