<svg xmlns="http://www.w3.org/2000/svg" viewBox="0 0 333.02 252.13"><defs><style>.cls-1{fill:none;}.cls-1,.cls-3{stroke:#1d1d1b;stroke-width:21.49px;}.cls-1,.cls-2,.cls-3{stroke-linecap:round;stroke-linejoin:round;}.cls-2{fill:#caba9f;stroke:#caba9f;stroke-width:13.53px;}.cls-3,.cls-4{fill:#1d1d1b;}</style></defs><g id="Warstwa_2" data-name="Warstwa 2"><g id="Warstwa_1-2" data-name="Warstwa 1"><path class="cls-1" d="M224.72,76V44.18a33.43,33.43,0,0,0-33.43-33.44H44.18A33.41,33.41,0,0,0,10.74,44.18v72.05a33.42,33.42,0,0,0,32.8,33.43l4,42c.4,4.21,3.71,6.55,5.95,4.21L74.6,173.9l22.3-24.24c.24-.23.24-.13.17,0h36.28"/><path class="cls-2" d="M245.58,199.51h.14C245.85,200,245.62,199.71,245.58,199.51Z"/><path class="cls-3" d="M322.28,105.76v64.06a29.67,29.67,0,0,1-29.12,29.69l-3.55,37.31c-.36,3.75-3.31,5.82-5.28,3.75l-18.79-19.49-19.82-21.57c-.2-.2-.2-.1-.14,0H161.83a29.71,29.71,0,0,1-29.72-29.69V150.66l1.24-1h57.94a33.45,33.45,0,0,0,33.43-33.43V76h67.87A29.69,29.69,0,0,1,322.28,105.76Z"/><path class="cls-4" d="M45.75,101.55v-.11a7.84,7.84,0,0,1,4.07-6.87L58,90.06a7.83,7.83,0,0,0,0-13.73l-8.17-4.49A7.85,7.85,0,0,1,45.8,65h0A7.84,7.84,0,0,1,57.4,58.1L85.54,73.51a7.83,7.83,0,0,1,4.07,6.87v5.79A7.82,7.82,0,0,1,85.53,93L57.34,108.43A7.84,7.84,0,0,1,45.75,101.55Z"/></g></g></svg>