<svg width="9" height="11" viewBox="0 0 9 11" fill="none" xmlns="http://www.w3.org/2000/svg">
<path d="M2.57021e-05 9.34018C0.000389996 9.04393 0.0714602 8.75321 0.20582 8.49833C0.34018 8.24345 0.532912 8.03374 0.76393 7.89106L2.30257 6.94121C2.5329 6.79799 2.72489 6.58804 2.85858 6.3332C2.99227 6.07836 3.06278 5.78792 3.06278 5.49209C3.06278 5.19625 2.99227 4.90581 2.85858 4.65097C2.72489 4.39613 2.5329 4.18618 2.30257 4.04296L0.76393 3.09311C0.534298 2.94915 0.342967 2.73898 0.209648 2.48427C0.0763285 2.22956 0.0058369 1.9395 0.00544047 1.64399C0.00730126 1.35903 0.0745593 1.07943 0.200703 0.832231C0.326847 0.585031 0.507608 0.378593 0.725514 0.232881C0.943421 0.0871679 1.1911 0.00711254 1.44459 0.000452473C1.69808 -0.00620759 1.94881 0.0607535 2.17254 0.194863L7.45484 3.44626C7.68586 3.58894 7.8786 3.79865 8.01296 4.05353C8.14732 4.30842 8.21839 4.59913 8.21875 4.89539V6.11314C8.21896 6.40952 8.14814 6.7005 8.01372 6.95549C7.8793 7.21049 7.68624 7.42009 7.45484 7.56226L2.15629 10.8076C1.93191 10.9414 1.68048 11.0074 1.42658 10.9993C1.17268 10.9912 0.924997 10.9093 0.707724 10.7614C0.490451 10.6135 0.311023 10.4049 0.18698 10.1558C0.0629372 9.90665 -0.001477 9.62564 2.57021e-05 9.34018Z" fill="#8C00FF"/>
</svg>
