<svg width="146" height="28" viewBox="0 0 146 28" fill="none" xmlns="http://www.w3.org/2000/svg">
<path d="M0.851243 23.9804C2.1993 24.8226 3.74764 25.2899 5.33654 25.3341C7.81217 25.3341 8.98101 24.095 8.98101 22.5487C8.98101 20.9243 8.01262 20.034 5.50054 19.1073C2.12681 17.9072 0.541463 16.0511 0.541463 13.7967C0.541463 10.7796 2.97805 8.30401 6.99998 8.30401C8.60947 8.29107 10.195 8.69462 11.6024 9.47545L10.7512 11.9511C9.5999 11.2419 8.27405 10.867 6.92188 10.8682C4.91222 10.8682 3.79805 12.0292 3.79805 13.4193C3.79805 14.9812 4.92003 15.6632 7.35662 16.5926C10.6054 17.8291 12.2688 19.4561 12.2688 22.2389C12.261 25.5267 9.7073 27.854 5.25844 27.854C3.20973 27.854 1.31461 27.3333 0 26.5706L0.851243 23.9804Z" fill="#8C00FF"/>
<path d="M16.6318 13.7969C16.6318 11.8628 16.5901 10.2774 16.4756 8.73112H19.4536L19.6098 11.7482H19.7244C20.7656 9.96764 22.5098 8.3042 25.6024 8.3042C28.1561 8.3042 30.0903 9.8531 30.9025 12.0554H30.978C31.4948 11.1107 32.2043 10.285 33.0605 9.63183C34.1825 8.78058 35.419 8.31461 37.1996 8.31461C39.6752 8.31461 43.3483 9.939 43.3483 16.4366V27.4611H40.0292V16.8635C40.0292 13.2659 38.7146 11.1 35.9683 11.1C34.0341 11.1 32.5269 12.5318 31.9463 14.1952C31.7731 14.7452 31.6853 15.3185 31.686 15.8951V27.4611H28.3487V16.2439C28.3487 13.2659 27.0341 11.1 24.444 11.1C22.3171 11.1 20.7682 12.8025 20.2268 14.505C20.0406 15.0384 19.9524 15.6011 19.9665 16.1658V27.4611H16.6318V13.7969Z" fill="#8C00FF"/>
<path d="M67.5293 0H70.9317V27.4611H67.5293V0Z" fill="#8C00FF"/>
<path d="M76.6562 0H80.0586V27.4611H76.6562V0Z" fill="#8C00FF"/>
<path d="M90.8512 4.25365H82.9219V1.39014H102.219V4.25365H94.2536V27.4611H90.8512V4.25365Z" fill="#8C00FF"/>
<path d="M112.895 27.4611L112.635 25.1H112.518C111.476 26.5708 109.461 27.8854 106.79 27.8854C103 27.8854 101.063 25.2171 101.063 22.5098C101.063 17.9855 105.088 15.5098 112.32 15.5489V15.161C112.32 13.6147 111.893 10.8293 108.066 10.8293C106.34 10.8377 104.651 11.3243 103.185 12.235L102.404 9.99108C103.953 8.98624 106.194 8.32764 108.555 8.32764C114.282 8.32764 115.67 12.2324 115.67 15.9862V22.9732C115.645 24.4752 115.749 25.9766 115.98 27.4611H112.895ZM112.39 17.9074C108.678 17.8293 104.463 18.4827 104.463 22.1271C104.463 24.332 105.934 25.3759 107.673 25.3759C108.661 25.4025 109.632 25.1142 110.446 24.5527C111.26 23.9911 111.874 23.1855 112.2 22.2521C112.318 21.903 112.383 21.5378 112.39 21.1692V17.9074Z" fill="#8C00FF"/>
<path d="M121.171 0H124.576V27.4611H121.171V0Z" fill="#8C00FF"/>
<path d="M133.663 17.3268H133.741C134.205 16.6682 134.863 15.8586 135.402 15.2L140.895 8.74151H144.997L137.763 16.4365L146 27.4611H141.874L135.402 18.4827L133.663 20.4168V27.4454H130.3V0H133.663V17.3268Z" fill="#8C00FF"/>
<path d="M49.3385 9.97803H61.0373C62.5081 9.97803 63.6951 11.2432 63.6951 12.8103V18.9174C63.6951 20.4637 62.5341 21.721 61.0919 21.7497L60.7769 25.3056C60.7431 25.6622 60.4802 25.8601 60.3032 25.6622L58.6215 23.8036L56.8487 21.7497C56.8045 21.6976 56.8643 21.8251 56.8487 21.7497H49.3385C47.8703 21.7497 46.6807 20.4793 46.6807 18.9174V12.8103C46.6807 11.2432 47.8703 9.97803 49.3385 9.97803Z" stroke="#8C00FF" stroke-width="2.25176" stroke-linecap="round" stroke-linejoin="round"/>
<path d="M49.7578 17.7379C49.758 17.6113 49.7921 17.487 49.8567 17.378C49.9213 17.269 50.0139 17.1794 50.1249 17.1184L50.8642 16.7123C50.9749 16.651 51.0671 16.5613 51.1313 16.4523C51.1956 16.3434 51.2295 16.2192 51.2295 16.0927C51.2295 15.9662 51.1956 15.8421 51.1313 15.7331C51.0671 15.6241 50.9749 15.5344 50.8642 15.4732L50.1249 15.0671C50.0145 15.0055 49.9226 14.9157 49.8585 14.8068C49.7945 14.6979 49.7606 14.5738 49.7604 14.4475C49.7613 14.3257 49.7936 14.2061 49.8542 14.1004C49.9149 13.9948 50.0017 13.9065 50.1064 13.8442C50.2111 13.7819 50.3301 13.7477 50.4519 13.7448C50.5737 13.742 50.6942 13.7706 50.8017 13.8279L53.3398 15.218C53.4508 15.279 53.5434 15.3687 53.608 15.4777C53.6725 15.5867 53.7067 15.7109 53.7069 15.8376V16.3582C53.707 16.485 53.6729 16.6094 53.6083 16.7184C53.5438 16.8274 53.451 16.917 53.3398 16.9778L50.7939 18.3653C50.6861 18.4225 50.5653 18.4507 50.4433 18.4473C50.3213 18.4438 50.2023 18.4088 50.0979 18.3456C49.9935 18.2823 49.9073 18.1931 49.8477 18.0866C49.7881 17.9801 49.7571 17.86 49.7578 17.7379Z" fill="#8C00FF"/>
</svg>
