<svg width="24" height="24" viewBox="0 0 24 24" fill="none" xmlns="http://www.w3.org/2000/svg">
<circle cx="12" cy="12" r="11.0526" stroke="black" stroke-width="1.89474"/>
<path d="M17.0525 21.4735V16.4207C17.0525 15.7508 16.7864 15.1082 16.3126 14.6344C15.8388 14.1607 15.1962 13.8945 14.5262 13.8945H9.47358C8.80356 13.8945 8.16098 14.1607 7.68721 14.6344C7.21343 15.1082 6.94727 15.7508 6.94727 16.4207L6.94727 21.4735" stroke="black" stroke-width="1.89474" stroke-linecap="round" stroke-linejoin="round"/>
<path d="M11.999 11.3685C13.3942 11.3685 14.5253 10.2375 14.5253 8.84223C14.5253 7.44699 13.3942 6.31592 11.999 6.31592C10.6037 6.31592 9.47266 7.44699 9.47266 8.84223C9.47266 10.2375 10.6037 11.3685 11.999 11.3685Z" stroke="black" stroke-width="1.89474" stroke-linecap="round" stroke-linejoin="round"/>
</svg>
