<svg width="152" height="152" viewBox="0 0 152 152" fill="none" xmlns="http://www.w3.org/2000/svg">
<path d="M152 76C152 91.0314 147.543 105.725 139.192 118.223C130.841 130.721 118.971 140.463 105.084 146.215C91.1968 151.967 75.9157 153.472 61.1731 150.54C46.4306 147.607 32.8887 140.369 22.2599 129.74C11.6311 119.111 4.3928 105.569 1.46032 90.8269C-1.47216 76.0843 0.0328955 60.8032 5.78516 46.9161C11.5374 33.0289 21.2785 21.1593 33.7767 12.8083C46.2748 4.45732 60.9686 -1.79247e-07 76 0V15.1344C63.9619 15.1344 52.1942 18.7041 42.1849 25.3921C32.1756 32.0801 24.3743 41.586 19.7675 52.7077C15.1607 63.8295 13.9554 76.0675 16.3039 87.8743C18.6524 99.6811 24.4493 110.526 32.9615 119.038C41.4737 127.551 52.3189 133.348 64.1257 135.696C75.9325 138.045 88.1705 136.839 99.2923 132.233C110.414 127.626 119.92 119.824 126.608 109.815C133.296 99.8058 136.866 88.0381 136.866 76H152Z" fill="#8C00FF"/>
</svg>
