<svg width="13" height="15" viewBox="0 0 13 15" fill="none" xmlns="http://www.w3.org/2000/svg">
<path d="M10.7778 7.08911H2.22222C1.54721 7.08911 1 7.65167 1 8.34562V12.7434C1 13.4373 1.54721 13.9999 2.22222 13.9999H10.7778C11.4528 13.9999 12 13.4373 12 12.7434V8.34562C12 7.65167 11.4528 7.08911 10.7778 7.08911Z" stroke="black" stroke-width="2" stroke-linecap="round" stroke-linejoin="round"/>
<path d="M3.44336 6.65427V4.14126C3.44336 3.30815 3.76528 2.50916 4.33831 1.92005C4.91134 1.33095 5.68853 1 6.49891 1C7.3093 1 8.08649 1.33095 8.65952 1.92005C9.23255 2.50916 9.55447 3.30815 9.55447 4.14126V6.65427" stroke="black" stroke-width="2" stroke-linecap="round" stroke-linejoin="round"/>
</svg>
